<?xml version="1.0" standalone="no"?><!DOCTYPE svg PUBLIC "-//W3C//DTD SVG 1.1//EN" "http://www.w3.org/Graphics/SVG/1.1/DTD/svg11.dtd"><svg t="1720668629306" class="icon" viewBox="0 0 1024 1024" version="1.1" xmlns="http://www.w3.org/2000/svg" p-id="2429" xmlns:xlink="http://www.w3.org/1999/xlink" width="200" height="200"><path d="M889.42 135.01L511.8 64.49l-370.39 70.52-33.01 4.94v455.92c0 27.34 6.96 54.53 20.97 81.56 13.93 27.12 32.17 53.29 54.71 78.73 22.54 25.4 48.19 49.48 76.89 72.15 28.74 22.72 57.97 42.95 87.76 60.68 29.79 17.77 58.49 32.56 86.15 44.31 27.66 11.75 51.93 19.8 72.87 24.19l8.85 1.63 9.67-1.63c20.4-4.4 44.16-12.45 71.25-24.19 27.1-11.75 54.99-26.53 83.74-44.31 28.71-17.73 57.01-37.96 84.95-60.68 27.9-22.67 52.73-46.75 74.48-72.15 21.74-25.44 39.3-51.62 52.74-78.73 13.4-27.03 20.13-54.22 20.13-81.56V139.94l-24.14-4.93z m-57.01 469.84c0 21.04-4.99 41.81-15.06 62.24-10.03 20.46-23.43 40.14-40.26 59.04-16.86 18.95-36.15 36.72-58.01 53.25s-44.56 31.55-68.2 45.09c-23.59 13.54-47.5 25.25-71.7 35.17-24.23 9.91-46.66 17.26-67.27 22.09V472.28H189.56V184.64l317.89-55.04 4.47 0.89v341.79h320.5l-0.01 132.57z m0 0" p-id="2430" fill="#1065fe"></path></svg>